<svg xmlns="http://www.w3.org/2000/svg" viewBox="0 0 512 512" width="512" height="512">
  <defs>
    <linearGradient id="bg" x1="0" y1="0" x2="0" y2="1">
      <stop offset="0" stop-color="#1a2b45"/>
      <stop offset="1" stop-color="#0b0e13"/>
    </linearGradient>
  </defs>
  <rect width="512" height="512" fill="url(#bg)"/>
  <g fill="#e9eff8">
    <rect x="238" y="52" width="36" height="26" rx="6"/>
    <path d="M256 78 L306 168 L206 168 Z"/>
    <rect x="200" y="168" width="112" height="26" rx="6"/>
    <rect x="212" y="194" width="88" height="196"/>
    <rect x="184" y="390" width="144" height="30" rx="8"/>
    <rect x="164" y="420" width="184" height="34" rx="10"/>
  </g>
  <circle cx="256" cy="248" r="40" fill="#0b0e13"/>
  <circle cx="256" cy="248" r="40" fill="none" stroke="#5aa2ff" stroke-width="7"/>
  <g stroke="#5aa2ff" stroke-width="7" stroke-linecap="round">
    <line x1="256" y1="248" x2="256" y2="224"/>
    <line x1="256" y1="248" x2="274" y2="258"/>
  </g>
  <g fill="#5aa2ff" opacity=".85">
    <rect x="222" y="310" width="68" height="7" rx="3.5"/>
    <rect x="222" y="330" width="68" height="7" rx="3.5"/>
    <rect x="222" y="350" width="68" height="7" rx="3.5"/>
  </g>
</svg>
